<svg width="328" height="390" viewBox="0 0 328 390" fill="none" xmlns="http://www.w3.org/2000/svg">
<path d="M164 300L196 364H132L164 300Z" fill="#7756FF"/>
<path d="M72.083 244L28.9181 301L0.0830078 244.043L72.083 244Z" fill="#7756FF"/>
<path d="M72.083 143L28.9181 86L0.0830078 142.957L72.083 143Z" fill="#7756FF"/>
<path d="M254.083 244L297.248 301L326.083 244.043L254.083 244Z" fill="#7756FF"/>
<path d="M254.083 143L297.248 86L326.083 142.957L254.083 143Z" fill="#7756FF"/>
<path d="M164 89L196 25H132L164 89Z" fill="#7756FF"/>
<path fill-rule="evenodd" clip-rule="evenodd" d="M328 97.5V292.5L164 390L0 292.5V97.5L164 0L328 97.5ZM24 112.58V277.42L164 359.84L304 277.42V112.58L164 30.1602L24 112.58Z" fill="#7756FF"/>
<path d="M183.33 279H144.67L89 111H122.771L164 235.418L205.228 111H239L183.33 279Z" fill="#7756FF"/>
</svg>
