<svg width="773" height="390" viewBox="0 0 773 390" fill="none" xmlns="http://www.w3.org/2000/svg">
<path d="M160 97.5005H192V292.5H160V97.5005Z" fill="#383D41"/>
<path d="M0 97.5005H32V292.5H0V97.5005Z" fill="#383D41"/>
<path d="M0 260.5H120V292.5L0 292.5L0 260.5Z" fill="#383D41"/>
<path d="M741 97.5005H773V292.5H741V97.5005Z" fill="#383D41"/>
<path d="M600 97.5005H632V292.5H600V97.5005Z" fill="#383D41"/>
<path d="M771.394 277.51L752.049 292.5H741.119L604.365 116.016L628.261 97.5H631.907L771.394 277.51Z" fill="#383D41"/>
<path d="M396 300L428 364H364L396 300Z" fill="#7756FF"/>
<path d="M304.083 244L260.918 301L232.083 244.043L304.083 244Z" fill="#7756FF"/>
<path d="M304.083 143L260.918 86L232.083 142.957L304.083 143Z" fill="#7756FF"/>
<path d="M486.083 244L529.248 301L558.083 244.043L486.083 244Z" fill="#7756FF"/>
<path d="M486.083 143L529.248 86L558.083 142.957L486.083 143Z" fill="#7756FF"/>
<path d="M396 89L428 25H364L396 89Z" fill="#7756FF"/>
<path d="M560 97.5V292.5L396 390L232 292.5V97.5L396 0L560 97.5ZM256 112.58V277.42L396 359.84L536 277.42V112.58L396 30.1602L256 112.58Z" fill="#7756FF"/>
<path d="M415.33 279H376.67L321 111H354.771L396 235.418L437.228 111H471L415.33 279Z" fill="#7756FF"/>
</svg>
